<?xml version="1.0" encoding="iso-8859-1"?>
<!-- Uploaded to: SVG Repo, www.svgrepo.com, Generator: SVG Repo Mixer Tools -->
<svg version="1.1" id="Layer_1" xmlns="http://www.w3.org/2000/svg" xmlns:xlink="http://www.w3.org/1999/xlink" 
	 viewBox="0 0 512 512" xml:space="preserve">
<g>
	<rect x="233.075" style="fill:#FF6643;" width="45.851" height="183.403"/>
	<path style="fill:#FF6643;" d="M256,512C125.374,512,19.104,405.729,19.104,275.104c0-45.672,13.031-90.017,37.686-128.24
		c23.994-37.196,57.767-66.878,97.67-85.836l19.675,41.415c-66.323,31.51-109.18,99.284-109.18,172.66
		c0,105.342,85.703,191.045,191.045,191.045s191.045-85.703,191.045-191.045c0-73.376-42.857-141.15-109.18-172.66l19.675-41.415
		c39.902,18.958,73.676,48.638,97.67,85.836c24.656,38.223,37.686,82.568,37.686,128.24C492.896,405.729,386.626,512,256,512z"/>
</g>
<path style="fill:#FF4F19;" d="M455.209,146.865c-23.994-37.196-57.767-66.878-97.67-85.836l-19.675,41.415
	c66.323,31.51,109.18,99.284,109.18,172.66c0,105.342-85.703,191.045-191.045,191.045V512
	c130.626,0,236.896-106.271,236.896-236.896C492.896,229.433,479.865,185.087,455.209,146.865z"/>
</svg>